<svg width="422" height="184" viewBox="0 0 422 184" fill="none" xmlns="http://www.w3.org/2000/svg">
<path d="M135.039 131.176H107.222V180.462H76.6231V131.176H0V112.473L80.1635 2.27473H107.222V104.89H135.039V131.176ZM76.6231 66.2198L78.899 44.989H77.8875L69.2895 63.1868L42.9899 97.3077L30.3458 106.912L46.5302 104.89H76.6231V66.2198Z" fill="#1D77EE"/>
<path d="M148.791 91.7473C148.791 60.7436 154.102 37.7436 164.723 22.7473C175.344 7.58242 190.601 0 210.494 0C231.736 0 247.331 7.49817 257.277 22.4945C267.224 37.3224 272.197 60.4066 272.197 91.7473C272.197 122.919 266.803 146.088 256.013 161.253C245.392 176.418 230.135 184 210.241 184C189.168 184 173.658 176.081 163.711 160.242C153.764 144.234 148.791 121.403 148.791 91.7473ZM181.666 91.7473C181.666 112.304 183.857 128.227 188.241 139.516C192.793 150.637 200.21 156.198 210.494 156.198C220.441 156.198 227.69 151.059 232.242 140.78C236.963 130.502 239.323 114.158 239.323 91.7473C239.323 71.359 237.131 55.6044 232.748 44.4835C228.365 33.3626 220.862 27.8022 210.241 27.8022C200.126 27.8022 192.793 33.0256 188.241 43.4725C183.857 53.9194 181.666 70.011 181.666 91.7473Z" fill="#1D77EE"/>
<path d="M422 131.176H394.183V180.462H363.584V131.176H286.961V112.473L367.125 2.27473H394.183V104.89H422V131.176ZM363.584 66.2198L365.86 44.989H364.849L356.251 63.1868L329.951 97.3077L317.307 106.912L333.491 104.89H363.584V66.2198Z" fill="#1D77EE"/>
</svg>
