<svg width="32" height="32" viewBox="0 0 32 32" fill="none" xmlns="http://www.w3.org/2000/svg">
<rect width="32" height="32" fill="#1D77EE"/>
<path d="M4.49428 20.6191V11.9168H9.99428V13.4406H6.33952V15.256H7.06571C7.88317 15.256 8.5538 15.3691 9.07761 15.5953C9.60539 15.8215 9.99428 16.135 10.2443 16.5358C10.4982 16.9326 10.6252 17.387 10.6252 17.8989C10.6252 18.76 10.3375 19.4287 9.76214 19.9049C9.19071 20.381 8.27999 20.6191 7.02999 20.6191H4.49428ZM6.33952 19.1072H6.95857C7.51809 19.1072 7.95857 19.018 8.27999 18.8394C8.60142 18.6568 8.76214 18.3433 8.76214 17.8989C8.76214 17.5894 8.68277 17.3533 8.52404 17.1906C8.36928 17.0279 8.14507 16.9168 7.85142 16.8572C7.56174 16.7977 7.21452 16.768 6.80976 16.768H6.33952V19.1072ZM19.0955 11.9168V19.0834H20.2562V23.1549H18.4764V20.6191H13.024V23.1549H11.2443V19.0834H11.9169C12.1431 18.631 12.3613 18.1529 12.5717 17.6489C12.782 17.1449 12.9784 16.6033 13.1609 16.0239C13.3435 15.4445 13.5082 14.8156 13.655 14.137C13.8018 13.4584 13.9248 12.7183 14.024 11.9168H19.0955ZM17.2562 13.4525H15.4883C15.4288 13.8731 15.3475 14.3215 15.2443 14.7977C15.1411 15.2739 15.0181 15.76 14.8752 16.256C14.7363 16.7481 14.5796 17.2342 14.405 17.7144C14.2344 18.1945 14.0518 18.6509 13.8574 19.0834H17.2562V13.4525ZM21.6014 11.9168H24.3098C25.4685 11.9168 26.3455 12.0795 26.9407 12.4049C27.5359 12.7303 27.8336 13.3017 27.8336 14.1191C27.8336 14.4485 27.78 14.7461 27.6729 15.012C27.5697 15.2779 27.4189 15.4961 27.2205 15.6668C27.0221 15.8374 26.78 15.9485 26.4943 16.0001V16.0596C26.784 16.1191 27.0459 16.2223 27.28 16.3691C27.5141 16.512 27.7006 16.7223 27.8395 17.0001C27.9824 17.2739 28.0538 17.639 28.0538 18.0953C28.0538 18.6231 27.9248 19.0755 27.6669 19.4525C27.409 19.8295 27.0399 20.1191 26.5598 20.3215C26.0836 20.5199 25.5161 20.6191 24.8574 20.6191H21.6014V11.9168ZM23.4467 15.3632H24.5181C25.0538 15.3632 25.4248 15.2799 25.6312 15.1132C25.8375 14.9426 25.9407 14.6926 25.9407 14.3632C25.9407 14.0299 25.8177 13.7918 25.5717 13.6489C25.3296 13.5021 24.9447 13.4287 24.4169 13.4287H23.4467V15.3632ZM23.4467 16.8275V19.0953H24.649C25.2046 19.0953 25.5915 18.9882 25.8098 18.7739C26.028 18.5596 26.1371 18.2719 26.1371 17.9108C26.1371 17.6965 26.0895 17.508 25.9943 17.3453C25.899 17.1826 25.7383 17.0556 25.5121 16.9644C25.2899 16.8731 24.9824 16.8275 24.5895 16.8275H23.4467Z" fill="white"/>
</svg>
