<svg width="20" height="20" viewBox="0 0 20 20" fill="none" xmlns="http://www.w3.org/2000/svg">
<rect width="20" height="20" rx="2" fill="#1D77EE"/>
<path d="M9.19727 11.1426C9.60892 11.3472 10.0914 11.3521 10.5068 11.1553L15.3955 8.83887V12.375C15.3955 13.3178 15.3954 13.7891 15.1025 14.082C14.8096 14.3748 14.3381 14.375 13.3955 14.375H6.3125C5.36969 14.375 4.89836 14.3749 4.60547 14.082C4.31258 13.7891 4.3125 13.3178 4.3125 12.375V8.71289L9.19727 11.1426ZM13.3955 6.0625C14.3381 6.0625 14.8096 6.06274 15.1025 6.35547C15.3592 6.61209 15.3886 7.00569 15.3926 7.7334L10.0791 10.252C9.94077 10.3175 9.7797 10.316 9.64258 10.248L4.31543 7.59863C4.32317 6.9562 4.36516 6.59578 4.60547 6.35547C4.89836 6.06258 5.36969 6.0625 6.3125 6.0625H13.3955Z" fill="white"/>
</svg>
