<svg width="36" height="36" viewBox="0 0 36 36" fill="none" xmlns="http://www.w3.org/2000/svg">
<path d="M26.4053 14.5397C27.4516 14.226 28.5248 14.0103 29.6111 13.8954C30.6941 13.7806 31.5 12.8351 31.5 11.7462L31.5 6.69463C31.5 5.39517 30.3775 4.39479 29.0839 4.50887C16.0461 5.66062 5.66138 16.0461 4.5089 29.0839C4.39482 30.3782 5.39154 31.5 6.691 31.5L11.1956 31.5C12.8395 31.5 13.7814 30.6941 13.8962 29.6111C14.0109 28.5249 14.2263 27.4516 14.5397 26.4052C14.7237 25.7849 14.7363 25.1263 14.5763 24.4993C14.4162 23.8723 14.0895 23.3003 13.6307 22.844L11.4684 20.6816C13.581 16.782 16.7821 13.581 20.6816 11.4684L22.844 13.6307C23.3002 14.0896 23.8722 14.4165 24.4992 14.5766C25.1262 14.7368 25.7848 14.7235 26.4053 14.5397Z" fill="#1D77EE"/>
</svg>
