<svg width="20" height="20" viewBox="0 0 20 20" fill="none" xmlns="http://www.w3.org/2000/svg">
<rect width="20" height="20" rx="2" fill="#1D77EE"/>
<path d="M15.6853 12.8068L14.0072 11.1321C13.4078 10.5341 12.3889 10.7733 12.1492 11.5508C11.9694 12.0891 11.3701 12.3881 10.8307 12.2685C9.63197 11.9695 8.01374 10.4144 7.71407 9.15847C7.53427 8.62017 7.89387 8.02209 8.43328 7.84269C9.21243 7.60345 9.45216 6.58671 8.85282 5.98863L7.17466 4.31399C6.69519 3.89534 5.97598 3.89534 5.55644 4.31399L4.41769 5.45035C3.27894 6.64652 4.53755 9.81636 7.35447 12.6274C10.1714 15.4383 13.3479 16.7542 14.5466 15.558L15.6853 14.4216C16.1049 13.9431 16.1049 13.2254 15.6853 12.8068Z" fill="white"/>
</svg>
