<svg width="20" height="20" viewBox="0 0 20 20" fill="none" xmlns="http://www.w3.org/2000/svg">
<rect width="20" height="20" rx="2" fill="#605EB3"/>
<path fill-rule="evenodd" clip-rule="evenodd" d="M10.0001 4.2251C8.76264 4.2251 6.83434 4.33895 5.65954 5.412C4.82904 6.23892 4.50014 7.39887 4.50014 8.9001L4.50007 8.99343C4.49997 9.09257 4.49986 9.19944 4.50069 9.3126C4.49986 9.42555 4.49997 9.53236 4.50007 9.63149L4.50014 9.72482C4.50014 11.226 4.82904 12.386 5.65954 13.2129C6.10669 13.6213 6.66439 13.89 7.25014 14.0671V15.3282C7.25014 15.7671 7.53861 15.7751 7.59141 15.7751H7.59389C7.72974 15.7745 7.84716 15.708 7.96486 15.6035C8.00914 15.5642 8.52036 14.9944 9.07641 14.3712C9.40751 14.3924 9.72211 14.4001 9.99986 14.4001C11.2374 14.4001 13.1654 14.286 14.3405 13.2129C15.1707 12.3863 15.4999 11.226 15.4999 9.72482L15.4999 9.63146C15.5 9.53232 15.5001 9.42547 15.4993 9.31232C15.5001 9.1992 15.5 9.09253 15.4999 8.99337L15.4999 8.89982C15.4999 7.3986 15.171 6.23865 14.3405 5.41172C13.1657 4.33895 11.2376 4.2251 10.0001 4.2251ZM11.7307 10.4714C12.1526 10.7247 12.2936 10.8025 12.5992 11.0599C12.7026 11.1471 12.7499 11.2464 12.7501 11.3503C12.7504 11.5263 12.6632 11.7568 12.5469 11.913C12.3717 12.1478 12.1333 12.3937 11.8363 12.4591C11.7926 12.4688 11.7489 12.4737 11.7051 12.4751C11.3988 12.4839 11.0886 12.3645 10.8251 12.2347C10.1984 11.9259 9.59176 11.5173 9.05001 11.0726C8.87676 10.9301 8.71561 10.7753 8.55996 10.6153C8.39964 10.4596 8.24481 10.2985 8.10264 10.1252C7.65796 9.58347 7.24931 8.97682 6.94049 8.3501C6.80931 8.08417 6.68776 7.77012 6.70041 7.46075C6.70206 7.42005 6.70729 7.37935 6.71609 7.33892C6.78181 7.04192 7.02739 6.8035 7.26224 6.62832C7.41844 6.512 7.64916 6.42482 7.82489 6.4251C7.92884 6.42537 8.02811 6.47267 8.11529 6.57607C8.37296 6.88132 8.45051 7.0224 8.70379 7.44452C8.80911 7.62025 8.90014 7.88397 8.90014 8.0245C8.90014 8.12047 8.82259 8.23542 8.75219 8.30555C8.57179 8.48622 8.35014 8.54947 8.35014 8.86572C8.35014 9.1751 8.66501 9.71547 9.07201 10.1032C9.45976 10.5102 10.0001 10.8251 10.3095 10.8251C10.6258 10.8251 10.6849 10.5993 10.8653 10.4189C10.9357 10.3485 11.0506 10.2751 11.1466 10.2751C11.2871 10.2751 11.555 10.3661 11.7307 10.4714ZM12.4751 9.4501C12.4751 9.6019 12.5983 9.7251 12.7501 9.7251C12.9019 9.7251 13.0251 9.6019 13.0251 9.4501V9.1751C13.0251 7.50722 11.668 6.1501 10.0001 6.1501C9.84834 6.1501 9.72514 6.2733 9.72514 6.4251C9.72514 6.5769 9.84834 6.7001 10.0001 6.7001C11.3647 6.7001 12.4751 7.81055 12.4751 9.1751V9.4501ZM10.7952 8.9694C10.8273 9.09315 10.939 9.1751 11.0611 9.1751C11.0839 9.1751 11.1073 9.17207 11.1307 9.16602C11.2775 9.12752 11.3655 8.97765 11.3273 8.83052C11.2016 8.34872 10.8249 7.97225 10.3442 7.84767C10.1965 7.81 10.0469 7.89827 10.0089 8.04512C9.97099 8.19225 10.0593 8.34212 10.2064 8.38035C10.4943 8.4546 10.7198 8.68037 10.7952 8.9694ZM11.6501 9.1751C11.6501 9.3269 11.7733 9.4501 11.9251 9.4501C12.0769 9.4501 12.2001 9.3269 12.2001 9.1751C12.2001 8.0058 11.2855 7.04137 10.1176 6.97977C9.96824 6.97152 9.83651 7.08812 9.82854 7.23992C9.82056 7.39145 9.93689 7.52097 10.0887 7.52895C10.9643 7.57515 11.6501 8.2984 11.6501 9.1751Z" fill="white"/>
</svg>
